<svg version="1.1" xmlns="http://www.w3.org/2000/svg" xmlns:xlink="http://www.w3.org/1999/xlink" width="900" height="740"><defs/><g><text fill="#eeeeee" stroke="none" font-family="Arial" font-size="24px" font-style="normal" font-weight="normal" text-decoration="none" x="0" y="0"></text><text fill="#eeeeee" stroke="none" font-family="Arial" font-size="24px" font-style="normal" font-weight="normal" text-decoration="none" x="0" y="30"></text><text fill="#eeeeee" stroke="none" font-family="Arial" font-size="24px" font-style="normal" font-weight="normal" text-decoration="none" x="0" y="60"></text><text fill="#eeeeee" stroke="none" font-family="Arial" font-size="24px" font-style="normal" font-weight="normal" text-decoration="none" x="0" y="90"></text><text fill="#eeeeee" stroke="none" font-family="Arial" font-size="24px" font-style="normal" font-weight="normal" text-decoration="none" x="0" y="120"></text><text fill="#eeeeee" stroke="none" font-family="Arial" font-size="24px" font-style="normal" font-weight="normal" text-decoration="none" x="0" y="150"></text><text fill="#eeeeee" stroke="none" font-family="Arial" font-size="24px" font-style="normal" font-weight="normal" text-decoration="none" x="0" y="180"></text><text fill="#eeeeee" stroke="none" font-family="Arial" font-size="24px" font-style="normal" font-weight="normal" text-decoration="none" x="0" y="210"></text><text fill="#eeeeee" stroke="none" font-family="Arial" font-size="24px" font-style="normal" font-weight="normal" text-decoration="none" x="0" y="240"></text><text fill="#eeeeee" stroke="none" font-family="Arial" font-size="24px" font-style="normal" font-weight="normal" text-decoration="none" x="0" y="270"></text><text fill="#eeeeee" stroke="none" font-family="Arial" font-size="24px" font-style="normal" font-weight="normal" text-decoration="none" x="0" y="300"></text><text fill="#eeeeee" stroke="none" font-family="Arial" font-size="24px" font-style="normal" font-weight="normal" text-decoration="none" x="0" y="330"></text><text fill="#eeeeee" stroke="none" font-family="Arial" font-size="24px" font-style="normal" font-weight="normal" text-decoration="none" x="0" y="360"></text><text fill="#eeeeee" stroke="none" font-family="Arial" font-size="24px" font-style="normal" font-weight="normal" text-decoration="none" x="0" y="390"></text><text fill="#eeeeee" stroke="none" font-family="Arial" font-size="24px" font-style="normal" font-weight="normal" text-decoration="none" x="0" y="420"></text><text fill="#eeeeee" stroke="none" font-family="Arial" font-size="24px" font-style="normal" font-weight="normal" text-decoration="none" x="0" y="450"></text><text fill="#eeeeee" stroke="none" font-family="Arial" font-size="24px" font-style="normal" font-weight="normal" text-decoration="none" x="0" y="480"></text><text fill="#eeeeee" stroke="none" font-family="Arial" font-size="24px" font-style="normal" font-weight="normal" text-decoration="none" x="0" y="510"></text><text fill="#eeeeee" stroke="none" font-family="Arial" font-size="24px" font-style="normal" font-weight="normal" text-decoration="none" x="0" y="540"></text><text fill="#eeeeee" stroke="none" font-family="Arial" font-size="24px" font-style="normal" font-weight="normal" text-decoration="none" x="0" y="570"></text><text fill="#eeeeee" stroke="none" font-family="Arial" font-size="24px" font-style="normal" font-weight="normal" text-decoration="none" x="0" y="600"></text><text fill="#eeeeee" stroke="none" font-family="Arial" font-size="24px" font-style="normal" font-weight="normal" text-decoration="none" x="0" y="630"></text><text fill="#eeeeee" stroke="none" font-family="Arial" font-size="24px" font-style="normal" font-weight="normal" text-decoration="none" x="0" y="660"></text><text fill="#eeeeee" stroke="none" font-family="Arial" font-size="24px" font-style="normal" font-weight="normal" text-decoration="none" x="0" y="690"></text><text fill="#eeeeee" stroke="none" font-family="Arial" font-size="24px" font-style="normal" font-weight="normal" text-decoration="none" x="0" y="720"></text><text fill="#eeeeee" stroke="none" font-family="Arial" font-size="24px" font-style="normal" font-weight="normal" text-decoration="none" x="200" y="0"></text><text fill="#eeeeee" stroke="none" font-family="Arial" font-size="24px" font-style="normal" font-weight="normal" text-decoration="none" x="200" y="30"></text><text fill="#eeeeee" stroke="none" font-family="Arial" font-size="24px" font-style="normal" font-weight="normal" text-decoration="none" x="200" y="60"></text><text fill="#eeeeee" stroke="none" font-family="Arial" font-size="24px" font-style="normal" font-weight="normal" text-decoration="none" x="200" y="90"></text><text fill="#eeeeee" stroke="none" font-family="Arial" font-size="24px" font-style="normal" font-weight="normal" text-decoration="none" x="200" y="120"></text><text fill="#eeeeee" stroke="none" font-family="Arial" font-size="24px" font-style="normal" font-weight="normal" text-decoration="none" x="200" y="150"></text><text fill="#eeeeee" stroke="none" font-family="Arial" font-size="24px" font-style="normal" font-weight="normal" text-decoration="none" x="200" y="180"></text><text fill="#eeeeee" stroke="none" font-family="Arial" font-size="24px" font-style="normal" font-weight="normal" text-decoration="none" x="200" y="210"></text><text fill="#eeeeee" stroke="none" font-family="Arial" font-size="24px" font-style="normal" font-weight="normal" text-decoration="none" x="200" y="240"></text><text fill="#eeeeee" stroke="none" font-family="Arial" font-size="24px" font-style="normal" font-weight="normal" text-decoration="none" x="200" y="270"></text><text fill="#eeeeee" stroke="none" font-family="Arial" font-size="24px" font-style="normal" font-weight="normal" text-decoration="none" x="200" y="300"></text><text fill="#eeeeee" stroke="none" font-family="Arial" font-size="24px" font-style="normal" font-weight="normal" text-decoration="none" x="200" y="330"></text><text fill="#eeeeee" stroke="none" font-family="Arial" font-size="24px" font-style="normal" font-weight="normal" text-decoration="none" x="200" y="360"></text><text fill="#eeeeee" stroke="none" font-family="Arial" font-size="24px" font-style="normal" font-weight="normal" text-decoration="none" x="200" y="390"></text><text fill="#eeeeee" stroke="none" font-family="Arial" font-size="24px" font-style="normal" font-weight="normal" text-decoration="none" x="200" y="420"></text><text fill="#eeeeee" stroke="none" font-family="Arial" font-size="24px" font-style="normal" font-weight="normal" text-decoration="none" x="200" y="450"></text><text fill="#eeeeee" stroke="none" font-family="Arial" font-size="24px" font-style="normal" font-weight="normal" text-decoration="none" x="200" y="480"></text><text fill="#eeeeee" stroke="none" font-family="Arial" font-size="24px" font-style="normal" font-weight="normal" text-decoration="none" x="200" y="510"></text><text fill="#eeeeee" stroke="none" font-family="Arial" font-size="24px" font-style="normal" font-weight="normal" text-decoration="none" x="200" y="540"></text><text fill="#eeeeee" stroke="none" font-family="Arial" font-size="24px" font-style="normal" font-weight="normal" text-decoration="none" x="200" y="570"></text><text fill="#eeeeee" stroke="none" font-family="Arial" font-size="24px" font-style="normal" font-weight="normal" text-decoration="none" x="200" y="600"></text><text fill="#eeeeee" stroke="none" font-family="Arial" font-size="24px" font-style="normal" font-weight="normal" text-decoration="none" x="200" y="630"></text><text fill="#eeeeee" stroke="none" font-family="Arial" font-size="24px" font-style="normal" font-weight="normal" text-decoration="none" x="200" y="660"></text><text fill="#eeeeee" stroke="none" font-family="Arial" font-size="24px" font-style="normal" font-weight="normal" text-decoration="none" x="200" y="690"></text><text fill="#eeeeee" stroke="none" font-family="Arial" font-size="24px" font-style="normal" font-weight="normal" text-decoration="none" x="200" y="720"></text><text fill="#eeeeee" stroke="none" font-family="Arial" font-size="24px" font-style="normal" font-weight="normal" text-decoration="none" x="400" y="0"></text><text fill="#eeeeee" stroke="none" font-family="Arial" font-size="24px" font-style="normal" font-weight="normal" text-decoration="none" x="400" y="30"></text><text fill="#eeeeee" stroke="none" font-family="Arial" font-size="24px" font-style="normal" font-weight="normal" text-decoration="none" x="400" y="60"></text><text fill="#eeeeee" stroke="none" font-family="Arial" font-size="24px" font-style="normal" font-weight="normal" text-decoration="none" x="400" y="90"></text><text fill="#eeeeee" stroke="none" font-family="Arial" font-size="24px" font-style="normal" font-weight="normal" text-decoration="none" x="400" y="120"></text><text fill="#eeeeee" stroke="none" font-family="Arial" font-size="24px" font-style="normal" font-weight="normal" text-decoration="none" x="400" y="150"></text><text fill="#eeeeee" stroke="none" font-family="Arial" font-size="24px" font-style="normal" font-weight="normal" text-decoration="none" x="400" y="180"></text><text fill="#eeeeee" stroke="none" font-family="Arial" font-size="24px" font-style="normal" font-weight="normal" text-decoration="none" x="400" y="210"></text><text fill="#eeeeee" stroke="none" font-family="Arial" font-size="24px" font-style="normal" font-weight="normal" text-decoration="none" x="400" y="240"></text><text fill="#eeeeee" stroke="none" font-family="Arial" font-size="24px" font-style="normal" font-weight="normal" text-decoration="none" x="400" y="270"></text><text fill="#eeeeee" stroke="none" font-family="Arial" font-size="24px" font-style="normal" font-weight="normal" text-decoration="none" x="400" y="300"></text><text fill="#eeeeee" stroke="none" font-family="Arial" font-size="24px" font-style="normal" font-weight="normal" text-decoration="none" x="400" y="330"></text><text fill="#eeeeee" stroke="none" font-family="Arial" font-size="24px" font-style="normal" font-weight="normal" text-decoration="none" x="400" y="360"></text><text fill="#eeeeee" stroke="none" font-family="Arial" font-size="24px" font-style="normal" font-weight="normal" text-decoration="none" x="400" y="390"></text><text fill="#eeeeee" stroke="none" font-family="Arial" font-size="24px" font-style="normal" font-weight="normal" text-decoration="none" x="400" y="420"></text><text fill="#eeeeee" stroke="none" font-family="Arial" font-size="24px" font-style="normal" font-weight="normal" text-decoration="none" x="400" y="450"></text><text fill="#eeeeee" stroke="none" font-family="Arial" font-size="24px" font-style="normal" font-weight="normal" text-decoration="none" x="400" y="480"></text><text fill="#eeeeee" stroke="none" font-family="Arial" font-size="24px" font-style="normal" font-weight="normal" text-decoration="none" x="400" y="510"></text><text fill="#eeeeee" stroke="none" font-family="Arial" font-size="24px" font-style="normal" font-weight="normal" text-decoration="none" x="400" y="540"></text><text fill="#eeeeee" stroke="none" font-family="Arial" font-size="24px" font-style="normal" font-weight="normal" text-decoration="none" x="400" y="570"></text><text fill="#eeeeee" stroke="none" font-family="Arial" font-size="24px" font-style="normal" font-weight="normal" text-decoration="none" x="400" y="600"></text><text fill="#eeeeee" stroke="none" font-family="Arial" font-size="24px" font-style="normal" font-weight="normal" text-decoration="none" x="400" y="630"></text><text fill="#eeeeee" stroke="none" font-family="Arial" font-size="24px" font-style="normal" font-weight="normal" text-decoration="none" x="400" y="660"></text><text fill="#eeeeee" stroke="none" font-family="Arial" font-size="24px" font-style="normal" font-weight="normal" text-decoration="none" x="400" y="690"></text><text fill="#eeeeee" stroke="none" font-family="Arial" font-size="24px" font-style="normal" font-weight="normal" text-decoration="none" x="400" y="720"></text><text fill="#eeeeee" stroke="none" font-family="Arial" font-size="24px" font-style="normal" font-weight="normal" text-decoration="none" x="600" y="0"></text><text fill="#eeeeee" stroke="none" font-family="Arial" font-size="24px" font-style="normal" font-weight="normal" text-decoration="none" x="600" y="30"></text><text fill="#eeeeee" stroke="none" font-family="Arial" font-size="24px" font-style="normal" font-weight="normal" text-decoration="none" x="600" y="60"></text><text fill="#eeeeee" stroke="none" font-family="Arial" font-size="24px" font-style="normal" font-weight="normal" text-decoration="none" x="600" y="90"></text><text fill="#eeeeee" stroke="none" font-family="Arial" font-size="24px" font-style="normal" font-weight="normal" text-decoration="none" x="600" y="120"></text><text fill="#eeeeee" stroke="none" font-family="Arial" font-size="24px" font-style="normal" font-weight="normal" text-decoration="none" x="600" y="150"></text><text fill="#eeeeee" stroke="none" font-family="Arial" font-size="24px" font-style="normal" font-weight="normal" text-decoration="none" x="600" y="180"></text><text fill="#eeeeee" stroke="none" font-family="Arial" font-size="24px" font-style="normal" font-weight="normal" text-decoration="none" x="600" y="210"></text><text fill="#eeeeee" stroke="none" font-family="Arial" font-size="24px" font-style="normal" font-weight="normal" text-decoration="none" x="600" y="240"></text><text fill="#eeeeee" stroke="none" font-family="Arial" font-size="24px" font-style="normal" font-weight="normal" text-decoration="none" x="600" y="270"></text><text fill="#eeeeee" stroke="none" font-family="Arial" font-size="24px" font-style="normal" font-weight="normal" text-decoration="none" x="600" y="300"></text><text fill="#eeeeee" stroke="none" font-family="Arial" font-size="24px" font-style="normal" font-weight="normal" text-decoration="none" x="600" y="330"></text><text fill="#eeeeee" stroke="none" font-family="Arial" font-size="24px" font-style="normal" font-weight="normal" text-decoration="none" x="600" y="360"></text><text fill="#eeeeee" stroke="none" font-family="Arial" font-size="24px" font-style="normal" font-weight="normal" text-decoration="none" x="600" y="390"></text><text fill="#eeeeee" stroke="none" font-family="Arial" font-size="24px" font-style="normal" font-weight="normal" text-decoration="none" x="600" y="420"></text><text fill="#eeeeee" stroke="none" font-family="Arial" font-size="24px" font-style="normal" font-weight="normal" text-decoration="none" x="600" y="450"></text><text fill="#eeeeee" stroke="none" font-family="Arial" font-size="24px" font-style="normal" font-weight="normal" text-decoration="none" x="600" y="480"></text><text fill="#eeeeee" stroke="none" font-family="Arial" font-size="24px" font-style="normal" font-weight="normal" text-decoration="none" x="600" y="510"></text><text fill="#eeeeee" stroke="none" font-family="Arial" font-size="24px" font-style="normal" font-weight="normal" text-decoration="none" x="600" y="540"></text><text fill="#eeeeee" stroke="none" font-family="Arial" font-size="24px" font-style="normal" font-weight="normal" text-decoration="none" x="600" y="570"></text><text fill="#eeeeee" stroke="none" font-family="Arial" font-size="24px" font-style="normal" font-weight="normal" text-decoration="none" x="600" y="600"></text><text fill="#eeeeee" stroke="none" font-family="Arial" font-size="24px" font-style="normal" font-weight="normal" text-decoration="none" x="600" y="630"></text><text fill="#eeeeee" stroke="none" font-family="Arial" font-size="24px" font-style="normal" font-weight="normal" text-decoration="none" x="600" y="660"></text><text fill="#eeeeee" stroke="none" font-family="Arial" font-size="24px" font-style="normal" font-weight="normal" text-decoration="none" x="600" y="690"></text><text fill="#eeeeee" stroke="none" font-family="Arial" font-size="24px" font-style="normal" font-weight="normal" text-decoration="none" x="600" y="720"></text><text fill="#eeeeee" stroke="none" font-family="Arial" font-size="24px" font-style="normal" font-weight="normal" text-decoration="none" x="800" y="0"></text><text fill="#eeeeee" stroke="none" font-family="Arial" font-size="24px" font-style="normal" font-weight="normal" text-decoration="none" x="800" y="30"></text><text fill="#eeeeee" stroke="none" font-family="Arial" font-size="24px" font-style="normal" font-weight="normal" text-decoration="none" x="800" y="60"></text><text fill="#eeeeee" stroke="none" font-family="Arial" font-size="24px" font-style="normal" font-weight="normal" text-decoration="none" x="800" y="90"></text><text fill="#eeeeee" stroke="none" font-family="Arial" font-size="24px" font-style="normal" font-weight="normal" text-decoration="none" x="800" y="120"></text><text fill="#eeeeee" stroke="none" font-family="Arial" font-size="24px" font-style="normal" font-weight="normal" text-decoration="none" x="800" y="150"></text><text fill="#eeeeee" stroke="none" font-family="Arial" font-size="24px" font-style="normal" font-weight="normal" text-decoration="none" x="800" y="180"></text><text fill="#eeeeee" stroke="none" font-family="Arial" font-size="24px" font-style="normal" font-weight="normal" text-decoration="none" x="800" y="210"></text><text fill="#eeeeee" stroke="none" font-family="Arial" font-size="24px" font-style="normal" font-weight="normal" text-decoration="none" x="800" y="240"></text><text fill="#eeeeee" stroke="none" font-family="Arial" font-size="24px" font-style="normal" font-weight="normal" text-decoration="none" x="800" y="270"></text><text fill="#eeeeee" stroke="none" font-family="Arial" font-size="24px" font-style="normal" font-weight="normal" text-decoration="none" x="800" y="300"></text><text fill="#eeeeee" stroke="none" font-family="Arial" font-size="24px" font-style="normal" font-weight="normal" text-decoration="none" x="800" y="330"></text><text fill="#eeeeee" stroke="none" font-family="Arial" font-size="24px" font-style="normal" font-weight="normal" text-decoration="none" x="800" y="360"></text><text fill="#eeeeee" stroke="none" font-family="Arial" font-size="24px" font-style="normal" font-weight="normal" text-decoration="none" x="800" y="390"></text><text fill="#eeeeee" stroke="none" font-family="Arial" font-size="24px" font-style="normal" font-weight="normal" text-decoration="none" x="800" y="420"></text><text fill="#eeeeee" stroke="none" font-family="Arial" font-size="24px" font-style="normal" font-weight="normal" text-decoration="none" x="800" y="450"></text><text fill="#eeeeee" stroke="none" font-family="Arial" font-size="24px" font-style="normal" font-weight="normal" text-decoration="none" x="800" y="480"></text><text fill="#eeeeee" stroke="none" font-family="Arial" font-size="24px" font-style="normal" font-weight="normal" text-decoration="none" x="800" y="510"></text><text fill="#eeeeee" stroke="none" font-family="Arial" font-size="24px" font-style="normal" font-weight="normal" text-decoration="none" x="800" y="540"></text><text fill="#eeeeee" stroke="none" font-family="Arial" font-size="24px" font-style="normal" font-weight="normal" text-decoration="none" x="800" y="570"></text><text fill="#eeeeee" stroke="none" font-family="Arial" font-size="24px" font-style="normal" font-weight="normal" text-decoration="none" x="800" y="600"></text><text fill="#eeeeee" stroke="none" font-family="Arial" font-size="24px" font-style="normal" font-weight="normal" text-decoration="none" x="800" y="630"></text><text fill="#eeeeee" stroke="none" font-family="Arial" font-size="24px" font-style="normal" font-weight="normal" text-decoration="none" x="800" y="660"></text><text fill="#eeeeee" stroke="none" font-family="Arial" font-size="24px" font-style="normal" font-weight="normal" text-decoration="none" x="800" y="690"></text><text fill="#eeeeee" stroke="none" font-family="Arial" font-size="24px" font-style="normal" font-weight="normal" text-decoration="none" x="800" y="720"></text><g transform="translate(-262,-86) scale(1,1)"><rect fill="#C0C0C0" stroke="none" x="393" y="391" width="326" height="432" opacity="0.2"/></g><g transform="translate(-262,-86) scale(1,1)"><rect fill="#ffffff" stroke="none" x="386" y="384" width="326" height="432"/></g><g transform="translate(-262,-86) scale(1,1)"><path fill="none" stroke="#000000" d="M 386 384 L 712 384 L 712 816 L 386 816 L 386 384 Z Z" stroke-miterlimit="10"/></g><g transform="translate(-262,-86) scale(1,1)"><rect fill="#ffffff" stroke="none" x="376" y="391" width="20" height="10"/></g><g transform="translate(-262,-86) scale(1,1)"><path fill="none" stroke="#000000" d="M 376 391 L 396 391 L 396 401 L 376 401 L 376 391 Z Z" stroke-miterlimit="10"/></g><g transform="translate(-262,-86) scale(1,1)"><rect fill="#ffffff" stroke="none" x="376" y="411" width="20" height="10"/></g><g transform="translate(-262,-86) scale(1,1)"><path fill="none" stroke="#000000" d="M 376 411 L 396 411 L 396 421 L 376 421 L 376 411 Z Z" stroke-miterlimit="10"/></g><g transform="translate(-262,-86) scale(1,1)"><g><path fill="none" stroke="none"/><text fill="#000000" stroke="none" font-family="Arial" font-size="13px" font-style="normal" font-weight="bold" text-decoration="none" x="500.181396484375" y="402">DataManagement</text></g></g><g transform="translate(-262,-86) scale(1,1)"><rect fill="#C0C0C0" stroke="none" x="425" y="463" width="269" height="95" opacity="0.2"/></g><g transform="translate(-262,-86) scale(1,1)"><rect fill="#ffffff" stroke="none" x="418" y="456" width="269" height="95"/></g><g transform="translate(-262,-86) scale(1,1)"><path fill="none" stroke="#000000" d="M 418 456 L 687 456 L 687 551 L 418 551 L 418 456 Z Z" stroke-miterlimit="10"/></g><g transform="translate(-262,-86) scale(1,1)"><rect fill="#ffffff" stroke="none" x="408" y="463" width="20" height="10"/></g><g transform="translate(-262,-86) scale(1,1)"><path fill="none" stroke="#000000" d="M 408 463 L 428 463 L 428 473 L 408 473 L 408 463 Z Z" stroke-miterlimit="10"/></g><g transform="translate(-262,-86) scale(1,1)"><rect fill="#ffffff" stroke="none" x="408" y="483" width="20" height="10"/></g><g transform="translate(-262,-86) scale(1,1)"><path fill="none" stroke="#000000" d="M 408 483 L 428 483 L 428 493 L 408 493 L 408 483 Z Z" stroke-miterlimit="10"/></g><g transform="translate(-262,-86) scale(1,1)"><g><path fill="none" stroke="none"/><text fill="#000000" stroke="none" font-family="Arial" font-size="13px" font-style="normal" font-weight="bold" text-decoration="none" x="509.82275390625" y="474">Filemanagment</text></g></g><g transform="translate(-262,-86) scale(1,1)"><rect fill="#C0C0C0" stroke="none" x="425" y="687" width="254" height="104" opacity="0.2"/></g><g transform="translate(-262,-86) scale(1,1)"><rect fill="#ffffff" stroke="none" x="418" y="680" width="254" height="104"/></g><g transform="translate(-262,-86) scale(1,1)"><path fill="none" stroke="#000000" d="M 418 680 L 672 680 L 672 784 L 418 784 L 418 680 Z Z" stroke-miterlimit="10"/></g><g transform="translate(-262,-86) scale(1,1)"><rect fill="#ffffff" stroke="none" x="408" y="687" width="20" height="10"/></g><g transform="translate(-262,-86) scale(1,1)"><path fill="none" stroke="#000000" d="M 408 687 L 428 687 L 428 697 L 408 697 L 408 687 Z Z" stroke-miterlimit="10"/></g><g transform="translate(-262,-86) scale(1,1)"><rect fill="#ffffff" stroke="none" x="408" y="707" width="20" height="10"/></g><g transform="translate(-262,-86) scale(1,1)"><path fill="none" stroke="#000000" d="M 408 707 L 428 707 L 428 717 L 408 717 L 408 707 Z Z" stroke-miterlimit="10"/></g><g transform="translate(-262,-86) scale(1,1)"><g><path fill="none" stroke="none"/><text fill="#000000" stroke="none" font-family="Arial" font-size="13px" font-style="normal" font-weight="bold" text-decoration="none" x="485.3427734375" y="698">SessionManagement</text></g></g><g transform="translate(-262,-86) scale(1,1)"><rect fill="#C0C0C0" stroke="none" x="777" y="407" width="285" height="79" opacity="0.2"/></g><g transform="translate(-262,-86) scale(1,1)"><rect fill="#ffffff" stroke="none" x="770" y="400" width="285" height="79"/></g><g transform="translate(-262,-86) scale(1,1)"><path fill="none" stroke="#000000" d="M 770 400 L 1055 400 L 1055 479 L 770 479 L 770 400 Z Z" stroke-miterlimit="10"/></g><g transform="translate(-262,-86) scale(1,1)"><rect fill="#ffffff" stroke="none" x="760" y="407" width="20" height="10"/></g><g transform="translate(-262,-86) scale(1,1)"><path fill="none" stroke="#000000" d="M 760 407 L 780 407 L 780 417 L 760 417 L 760 407 Z Z" stroke-miterlimit="10"/></g><g transform="translate(-262,-86) scale(1,1)"><rect fill="#ffffff" stroke="none" x="760" y="427" width="20" height="10"/></g><g transform="translate(-262,-86) scale(1,1)"><path fill="none" stroke="#000000" d="M 760 427 L 780 427 L 780 437 L 760 437 L 760 427 Z Z" stroke-miterlimit="10"/></g><g transform="translate(-262,-86) scale(1,1)"><g><path fill="none" stroke="none"/><text fill="#000000" stroke="none" font-family="Arial" font-size="13px" font-style="normal" font-weight="normal" text-decoration="none" x="887.1455078125" y="416">«external»</text></g></g><g transform="translate(-262,-86) scale(1,1)"><g><path fill="none" stroke="none"/><text fill="#000000" stroke="none" font-family="Arial" font-size="13px" font-style="normal" font-weight="bold" text-decoration="none" x="893.299560546875" y="431">Storage</text></g></g><g transform="translate(-262,-86) scale(1,1)"><path fill="#C0C0C0" stroke="none" d="M 810.451171875 562.5 C 810.451171875 556.1487248 815.599896675 551 821.951171875 551 C 828.302447075 551 833.451171875 556.1487248 833.451171875 562.5 C 833.451171875 568.8512752 828.302447075 574 821.951171875 574 C 815.599896675 574 810.451171875 568.8512752 810.451171875 562.5 Z" opacity="0.2"/></g><g transform="translate(-262,-86) scale(1,1)"><path fill="none" stroke="#000000" d="M 814 566.5 A 11.5 11.5 0 0 1 814 543.5" stroke-miterlimit="10"/></g><g transform="translate(-262,-86) scale(1,1)"><path fill="#ffffff" stroke="none" d="M 806.451171875 555.5 C 806.451171875 550.8055792 810.256751075 547 814.951171875 547 C 819.645592675 547 823.451171875 550.8055792 823.451171875 555.5 C 823.451171875 560.1944208 819.645592675 564 814.951171875 564 C 810.256751075 564 806.451171875 560.1944208 806.451171875 555.5 Z"/></g><g transform="translate(-262,-86) scale(1,1)"><path fill="none" stroke="#000000" d="M 806.451171875 555.5 C 806.451171875 550.8055792 810.256751075 547 814.951171875 547 C 819.645592675 547 823.451171875 550.8055792 823.451171875 555.5 C 823.451171875 560.1944208 819.645592675 564 814.951171875 564 C 810.256751075 564 806.451171875 560.1944208 806.451171875 555.5 Z" stroke-miterlimit="10"/></g><g transform="translate(-262,-86) scale(1,1)"><g><path fill="none" stroke="none"/><text fill="#000000" stroke="none" font-family="Arial" font-size="13px" font-style="normal" font-weight="bold" text-decoration="none" x="764.5" y="585">Save To Storage</text></g></g><g transform="translate(-262,-86) scale(1,1)"><path fill="none" stroke="#000000" d="M 877 480 L 826.451171875 546.69921875" stroke-miterlimit="10"/></g><g transform="translate(-262,-86) scale(1,1)"><path fill="none" stroke="#000000" d="M 688 537 L 803.451171875 555" stroke-miterlimit="10"/></g><g transform="translate(-262,-86) scale(1,1)"><path fill="#C0C0C0" stroke="none" d="M 561.91357421875 626.5 C 561.91357421875 620.1487248 567.06229901875 615 573.41357421875 615 C 579.76484941875 615 584.91357421875 620.1487248 584.91357421875 626.5 C 584.91357421875 632.8512752 579.76484941875 638 573.41357421875 638 C 567.06229901875 638 561.91357421875 632.8512752 561.91357421875 626.5 Z" opacity="0.2"/></g><g transform="translate(-262,-86) scale(1,1)"><path fill="none" stroke="#000000" d="M 577.3592741012843 620.7935695949396 A 11.5 11.5 0 0 1 554.6407258987157 617.2064304050604" stroke-miterlimit="10"/></g><g transform="translate(-262,-86) scale(1,1)"><path fill="#ffffff" stroke="none" d="M 557.91357421875 619.5 C 557.91357421875 614.8055792 561.71915341875 611 566.41357421875 611 C 571.10799501875 611 574.91357421875 614.8055792 574.91357421875 619.5 C 574.91357421875 624.1944208 571.10799501875 628 566.41357421875 628 C 561.71915341875 628 557.91357421875 624.1944208 557.91357421875 619.5 Z"/></g><g transform="translate(-262,-86) scale(1,1)"><path fill="none" stroke="#000000" d="M 557.91357421875 619.5 C 557.91357421875 614.8055792 561.71915341875 611 566.41357421875 611 C 571.10799501875 611 574.91357421875 614.8055792 574.91357421875 619.5 C 574.91357421875 624.1944208 571.10799501875 628 566.41357421875 628 C 561.71915341875 628 557.91357421875 624.1944208 557.91357421875 619.5 Z" stroke-miterlimit="10"/></g><g transform="translate(-262,-86) scale(1,1)"><g><path fill="none" stroke="none"/><text fill="#000000" stroke="none" font-family="Arial" font-size="13px" font-style="normal" font-weight="bold" text-decoration="none" x="524.5" y="649">Save Session</text></g></g><g transform="translate(-262,-86) scale(1,1)"><path fill="none" stroke="#000000" d="M 554 552 L 562.3333333333334 608" stroke-miterlimit="10"/></g><g transform="translate(-262,-86) scale(1,1)"><path fill="none" stroke="#000000" d="M 554 679 L 564.1052631578947 631" stroke-miterlimit="10"/></g><g transform="translate(-262,-86) scale(1,1)"><path fill="#C0C0C0" stroke="none" d="M 303.4208984375 586.5 C 303.4208984375 580.1487248 308.5696232375 575 314.9208984375 575 C 321.2721736375 575 326.4208984375 580.1487248 326.4208984375 586.5 C 326.4208984375 592.8512752 321.2721736375 598 314.9208984375 598 C 308.5696232375 598 303.4208984375 592.8512752 303.4208984375 586.5 Z" opacity="0.2"/></g><g transform="translate(-262,-86) scale(1,1)"><path fill="#ffffff" stroke="none" d="M 296.4208984375 579.5 C 296.4208984375 573.1487248 301.5696232375 568 307.9208984375 568 C 314.2721736375 568 319.4208984375 573.1487248 319.4208984375 579.5 C 319.4208984375 585.8512752 314.2721736375 591 307.9208984375 591 C 301.5696232375 591 296.4208984375 585.8512752 296.4208984375 579.5 Z"/></g><g transform="translate(-262,-86) scale(1,1)"><path fill="none" stroke="#000000" d="M 296.4208984375 579.5 C 296.4208984375 573.1487248 301.5696232375 568 307.9208984375 568 C 314.2721736375 568 319.4208984375 573.1487248 319.4208984375 579.5 C 319.4208984375 585.8512752 314.2721736375 591 307.9208984375 591 C 301.5696232375 591 296.4208984375 585.8512752 296.4208984375 579.5 Z" stroke-miterlimit="10"/></g><g transform="translate(-262,-86) scale(1,1)"><g><path fill="none" stroke="none"/><text fill="#000000" stroke="none" font-family="Arial" font-size="13px" font-style="normal" font-weight="bold" text-decoration="none" x="276.5" y="609">Load Data</text></g></g><g transform="translate(-262,-86) scale(1,1)"><path fill="none" stroke="#000000" d="M 415 552 L 319.4208984375 578.6731342516447" stroke-miterlimit="10"/></g><g transform="translate(-262,-86) scale(1,1)"><path fill="#C0C0C0" stroke="none" d="M 311.074951171875 498.5 C 311.074951171875 492.1487248 316.223675971875 487 322.574951171875 487 C 328.926226371875 487 334.074951171875 492.1487248 334.074951171875 498.5 C 334.074951171875 504.8512752 328.926226371875 510 322.574951171875 510 C 316.223675971875 510 311.074951171875 504.8512752 311.074951171875 498.5 Z" opacity="0.2"/></g><g transform="translate(-262,-86) scale(1,1)"><path fill="#ffffff" stroke="none" d="M 304.074951171875 491.5 C 304.074951171875 485.1487248 309.223675971875 480 315.574951171875 480 C 321.926226371875 480 327.074951171875 485.1487248 327.074951171875 491.5 C 327.074951171875 497.8512752 321.926226371875 503 315.574951171875 503 C 309.223675971875 503 304.074951171875 497.8512752 304.074951171875 491.5 Z"/></g><g transform="translate(-262,-86) scale(1,1)"><path fill="none" stroke="#000000" d="M 304.074951171875 491.5 C 304.074951171875 485.1487248 309.223675971875 480 315.574951171875 480 C 321.926226371875 480 327.074951171875 485.1487248 327.074951171875 491.5 C 327.074951171875 497.8512752 321.926226371875 503 315.574951171875 503 C 309.223675971875 503 304.074951171875 497.8512752 304.074951171875 491.5 Z" stroke-miterlimit="10"/></g><g transform="translate(-262,-86) scale(1,1)"><g><path fill="none" stroke="none"/><text fill="#000000" stroke="none" font-family="Arial" font-size="13px" font-style="normal" font-weight="bold" text-decoration="none" x="284.5" y="521">Save Data</text></g></g><g transform="translate(-262,-86) scale(1,1)"><path fill="none" stroke="#000000" d="M 407 504 L 327.074951171875 495.24255041173984" stroke-miterlimit="10"/></g><g transform="translate(-262,-86) scale(1,1)"><rect fill="#C0C0C0" stroke="none" x="377" y="103" width="358" height="144" opacity="0.2"/></g><g transform="translate(-262,-86) scale(1,1)"><rect fill="#ffffff" stroke="none" x="370" y="96" width="358" height="144"/></g><g transform="translate(-262,-86) scale(1,1)"><path fill="none" stroke="#000000" d="M 370 96 L 728 96 L 728 240 L 370 240 L 370 96 Z Z" stroke-miterlimit="10"/></g><g transform="translate(-262,-86) scale(1,1)"><rect fill="#ffffff" stroke="none" x="360" y="103" width="20" height="10"/></g><g transform="translate(-262,-86) scale(1,1)"><path fill="none" stroke="#000000" d="M 360 103 L 380 103 L 380 113 L 360 113 L 360 103 Z Z" stroke-miterlimit="10"/></g><g transform="translate(-262,-86) scale(1,1)"><rect fill="#ffffff" stroke="none" x="360" y="123" width="20" height="10"/></g><g transform="translate(-262,-86) scale(1,1)"><path fill="none" stroke="#000000" d="M 360 123 L 380 123 L 380 133 L 360 133 L 360 123 Z Z" stroke-miterlimit="10"/></g><g transform="translate(-262,-86) scale(1,1)"><g><path fill="none" stroke="none"/><text fill="#000000" stroke="none" font-family="Arial" font-size="13px" font-style="normal" font-weight="normal" text-decoration="none" x="523.6455078125" y="112">«external»</text></g></g><g transform="translate(-262,-86) scale(1,1)"><g><path fill="none" stroke="none"/><text fill="#000000" stroke="none" font-family="Arial" font-size="13px" font-style="normal" font-weight="bold" text-decoration="none" x="524.004150390625" y="127">Packages</text></g></g><g transform="translate(-262,-86) scale(1,1)"><rect fill="#ffffff" stroke="none" x="432" y="136" width="231" height="22"/></g><g transform="translate(-262,-86) scale(1,1)"><path fill="none" stroke="#000000" d="M 432 136 L 663 136 L 663 158 L 432 158 L 432 136 Z Z" stroke-miterlimit="10"/></g><g transform="translate(-262,-86) scale(1,1)"><path fill="none" stroke="#000000" d="M 464.39453125 136 L 464.39453125 158" stroke-miterlimit="10"/></g><g transform="translate(-262,-86) scale(1,1)"><g><path fill="none" stroke="none"/><text fill="#000000" stroke="none" font-family="Arial" font-size="13px" font-style="normal" font-weight="normal" text-decoration="none" x="468.89453125" y="152">https://pub.dev/packages/path</text></g></g><g transform="translate(-262,-86) scale(1,1)"><g><path fill="none" stroke="none"/><text fill="#000000" stroke="none" font-family="Arial" font-size="13px" font-style="normal" font-weight="bold" text-decoration="none" x="437" y="152">link</text></g></g><g transform="translate(-262,-86) scale(1,1)"><rect fill="#ffffff" stroke="none" x="416" y="176" width="270.046875" height="23"/></g><g transform="translate(-262,-86) scale(1,1)"><path fill="none" stroke="#000000" d="M 416 176 L 686.046875 176 L 686.046875 199 L 416 199 L 416 176 Z Z" stroke-miterlimit="10"/></g><g transform="translate(-262,-86) scale(1,1)"><path fill="none" stroke="#000000" d="M 448.39453125 176 L 448.39453125 199" stroke-miterlimit="10"/></g><g transform="translate(-262,-86) scale(1,1)"><g><path fill="none" stroke="none"/><text fill="#000000" stroke="none" font-family="Arial" font-size="13px" font-style="normal" font-weight="normal" text-decoration="none" x="452.89453125" y="192">https://pub.dev/packages/path_provider</text></g></g><g transform="translate(-262,-86) scale(1,1)"><g><path fill="none" stroke="none"/><text fill="#000000" stroke="none" font-family="Arial" font-size="13px" font-style="normal" font-weight="bold" text-decoration="none" x="421" y="192">link</text></g></g><g transform="translate(-262,-86) scale(1,1)"><path fill="none" stroke="#000000" d="M 547 455 L 545 241" stroke-miterlimit="10" stroke-dasharray="3"/></g><g transform="translate(-262,-86) scale(1,1)"><path fill="none" stroke="#000000" d="M 549.3043080523503 251.12289149356408 L 545 241 L 540.885640191818 251.20157063244756" stroke-miterlimit="10"/></g><g transform="translate(-262,-86) scale(1,1)"><rect fill="#C0C0C0" stroke="none" x="841" y="695" width="318" height="80" opacity="0.2"/></g><g transform="translate(-262,-86) scale(1,1)"><rect fill="#ffffff" stroke="none" x="834" y="688" width="318" height="80"/></g><g transform="translate(-262,-86) scale(1,1)"><path fill="none" stroke="#000000" d="M 834 688 L 1152 688 L 1152 768 L 834 768 L 834 688 Z Z" stroke-miterlimit="10"/></g><g transform="translate(-262,-86) scale(1,1)"><rect fill="#ffffff" stroke="none" x="824" y="695" width="20" height="10"/></g><g transform="translate(-262,-86) scale(1,1)"><path fill="none" stroke="#000000" d="M 824 695 L 844 695 L 844 705 L 824 705 L 824 695 Z Z" stroke-miterlimit="10"/></g><g transform="translate(-262,-86) scale(1,1)"><rect fill="#ffffff" stroke="none" x="824" y="715" width="20" height="10"/></g><g transform="translate(-262,-86) scale(1,1)"><path fill="none" stroke="#000000" d="M 824 715 L 844 715 L 844 725 L 824 725 L 824 715 Z Z" stroke-miterlimit="10"/></g><g transform="translate(-262,-86) scale(1,1)"><g><path fill="none" stroke="none"/><text fill="#000000" stroke="none" font-family="Arial" font-size="13px" font-style="normal" font-weight="normal" text-decoration="none" x="967.6455078125" y="704">«external»</text></g></g><g transform="translate(-262,-86) scale(1,1)"><g><path fill="none" stroke="none"/><text fill="#000000" stroke="none" font-family="Arial" font-size="13px" font-style="normal" font-weight="bold" text-decoration="none" x="968.004150390625" y="719">Packages</text></g></g><g transform="translate(-262,-86) scale(1,1)"><rect fill="#ffffff" stroke="none" x="872" y="728" width="255" height="23"/></g><g transform="translate(-262,-86) scale(1,1)"><path fill="none" stroke="#000000" d="M 872 728 L 1127 728 L 1127 751 L 872 751 L 872 728 Z Z" stroke-miterlimit="10"/></g><g transform="translate(-262,-86) scale(1,1)"><path fill="none" stroke="#000000" d="M 904.39453125 728 L 904.39453125 751" stroke-miterlimit="10"/></g><g transform="translate(-262,-86) scale(1,1)"><g><path fill="none" stroke="none"/><text fill="#000000" stroke="none" font-family="Arial" font-size="13px" font-style="normal" font-weight="normal" text-decoration="none" x="908.89453125" y="744">https://pub.dev/packages/uuid</text></g></g><g transform="translate(-262,-86) scale(1,1)"><g><path fill="none" stroke="none"/><text fill="#000000" stroke="none" font-family="Arial" font-size="13px" font-style="normal" font-weight="bold" text-decoration="none" x="877" y="744">link</text></g></g><g transform="translate(-262,-86) scale(1,1)"><path fill="none" stroke="#000000" d="M 673 731 L 823 729" stroke-miterlimit="10" stroke-dasharray="3"/></g><g transform="translate(-262,-86) scale(1,1)"><path fill="none" stroke="#000000" d="M 812.894350285844 733.3446339149322 L 823 729 L 812.7821064558028 724.926346661846" stroke-miterlimit="10"/></g></g></svg>