<svg version="1.1" xmlns="http://www.w3.org/2000/svg" xmlns:xlink="http://www.w3.org/1999/xlink" width="770.419921875" height="931"><defs/><g><text fill="#eeeeee" stroke="none" font-family="Arial" font-size="24px" font-style="normal" font-weight="normal" text-decoration="none" x="0" y="0"></text><text fill="#eeeeee" stroke="none" font-family="Arial" font-size="24px" font-style="normal" font-weight="normal" text-decoration="none" x="0" y="30"></text><text fill="#eeeeee" stroke="none" font-family="Arial" font-size="24px" font-style="normal" font-weight="normal" text-decoration="none" x="0" y="60"></text><text fill="#eeeeee" stroke="none" font-family="Arial" font-size="24px" font-style="normal" font-weight="normal" text-decoration="none" x="0" y="90"></text><text fill="#eeeeee" stroke="none" font-family="Arial" font-size="24px" font-style="normal" font-weight="normal" text-decoration="none" x="0" y="120"></text><text fill="#eeeeee" stroke="none" font-family="Arial" font-size="24px" font-style="normal" font-weight="normal" text-decoration="none" x="0" y="150"></text><text fill="#eeeeee" stroke="none" font-family="Arial" font-size="24px" font-style="normal" font-weight="normal" text-decoration="none" x="0" y="180"></text><text fill="#eeeeee" stroke="none" font-family="Arial" font-size="24px" font-style="normal" font-weight="normal" text-decoration="none" x="0" y="210"></text><text fill="#eeeeee" stroke="none" font-family="Arial" font-size="24px" font-style="normal" font-weight="normal" text-decoration="none" x="0" y="240"></text><text fill="#eeeeee" stroke="none" font-family="Arial" font-size="24px" font-style="normal" font-weight="normal" text-decoration="none" x="0" y="270"></text><text fill="#eeeeee" stroke="none" font-family="Arial" font-size="24px" font-style="normal" font-weight="normal" text-decoration="none" x="0" y="300"></text><text fill="#eeeeee" stroke="none" font-family="Arial" font-size="24px" font-style="normal" font-weight="normal" text-decoration="none" x="0" y="330"></text><text fill="#eeeeee" stroke="none" font-family="Arial" font-size="24px" font-style="normal" font-weight="normal" text-decoration="none" x="0" y="360"></text><text fill="#eeeeee" stroke="none" font-family="Arial" font-size="24px" font-style="normal" font-weight="normal" text-decoration="none" x="0" y="390"></text><text fill="#eeeeee" stroke="none" font-family="Arial" font-size="24px" font-style="normal" font-weight="normal" text-decoration="none" x="0" y="420"></text><text fill="#eeeeee" stroke="none" font-family="Arial" font-size="24px" font-style="normal" font-weight="normal" text-decoration="none" x="0" y="450"></text><text fill="#eeeeee" stroke="none" font-family="Arial" font-size="24px" font-style="normal" font-weight="normal" text-decoration="none" x="0" y="480"></text><text fill="#eeeeee" stroke="none" font-family="Arial" font-size="24px" font-style="normal" font-weight="normal" text-decoration="none" x="0" y="510"></text><text fill="#eeeeee" stroke="none" font-family="Arial" font-size="24px" font-style="normal" font-weight="normal" text-decoration="none" x="0" y="540"></text><text fill="#eeeeee" stroke="none" font-family="Arial" font-size="24px" font-style="normal" font-weight="normal" text-decoration="none" x="0" y="570"></text><text fill="#eeeeee" stroke="none" font-family="Arial" font-size="24px" font-style="normal" font-weight="normal" text-decoration="none" x="0" y="600"></text><text fill="#eeeeee" stroke="none" font-family="Arial" font-size="24px" font-style="normal" font-weight="normal" text-decoration="none" x="0" y="630"></text><text fill="#eeeeee" stroke="none" font-family="Arial" font-size="24px" font-style="normal" font-weight="normal" text-decoration="none" x="0" y="660"></text><text fill="#eeeeee" stroke="none" font-family="Arial" font-size="24px" font-style="normal" font-weight="normal" text-decoration="none" x="0" y="690"></text><text fill="#eeeeee" stroke="none" font-family="Arial" font-size="24px" font-style="normal" font-weight="normal" text-decoration="none" x="0" y="720"></text><text fill="#eeeeee" stroke="none" font-family="Arial" font-size="24px" font-style="normal" font-weight="normal" text-decoration="none" x="0" y="750"></text><text fill="#eeeeee" stroke="none" font-family="Arial" font-size="24px" font-style="normal" font-weight="normal" text-decoration="none" x="0" y="780"></text><text fill="#eeeeee" stroke="none" font-family="Arial" font-size="24px" font-style="normal" font-weight="normal" text-decoration="none" x="0" y="810"></text><text fill="#eeeeee" stroke="none" font-family="Arial" font-size="24px" font-style="normal" font-weight="normal" text-decoration="none" x="0" y="840"></text><text fill="#eeeeee" stroke="none" font-family="Arial" font-size="24px" font-style="normal" font-weight="normal" text-decoration="none" x="0" y="870"></text><text fill="#eeeeee" stroke="none" font-family="Arial" font-size="24px" font-style="normal" font-weight="normal" text-decoration="none" x="0" y="900"></text><text fill="#eeeeee" stroke="none" font-family="Arial" font-size="24px" font-style="normal" font-weight="normal" text-decoration="none" x="0" y="930"></text><text fill="#eeeeee" stroke="none" font-family="Arial" font-size="24px" font-style="normal" font-weight="normal" text-decoration="none" x="200" y="0"></text><text fill="#eeeeee" stroke="none" font-family="Arial" font-size="24px" font-style="normal" font-weight="normal" text-decoration="none" x="200" y="30"></text><text fill="#eeeeee" stroke="none" font-family="Arial" font-size="24px" font-style="normal" font-weight="normal" text-decoration="none" x="200" y="60"></text><text fill="#eeeeee" stroke="none" font-family="Arial" font-size="24px" font-style="normal" font-weight="normal" text-decoration="none" x="200" y="90"></text><text fill="#eeeeee" stroke="none" font-family="Arial" font-size="24px" font-style="normal" font-weight="normal" text-decoration="none" x="200" y="120"></text><text fill="#eeeeee" stroke="none" font-family="Arial" font-size="24px" font-style="normal" font-weight="normal" text-decoration="none" x="200" y="150"></text><text fill="#eeeeee" stroke="none" font-family="Arial" font-size="24px" font-style="normal" font-weight="normal" text-decoration="none" x="200" y="180"></text><text fill="#eeeeee" stroke="none" font-family="Arial" font-size="24px" font-style="normal" font-weight="normal" text-decoration="none" x="200" y="210"></text><text fill="#eeeeee" stroke="none" font-family="Arial" font-size="24px" font-style="normal" font-weight="normal" text-decoration="none" x="200" y="240"></text><text fill="#eeeeee" stroke="none" font-family="Arial" font-size="24px" font-style="normal" font-weight="normal" text-decoration="none" x="200" y="270"></text><text fill="#eeeeee" stroke="none" font-family="Arial" font-size="24px" font-style="normal" font-weight="normal" text-decoration="none" x="200" y="300"></text><text fill="#eeeeee" stroke="none" font-family="Arial" font-size="24px" font-style="normal" font-weight="normal" text-decoration="none" x="200" y="330"></text><text fill="#eeeeee" stroke="none" font-family="Arial" font-size="24px" font-style="normal" font-weight="normal" text-decoration="none" x="200" y="360"></text><text fill="#eeeeee" stroke="none" font-family="Arial" font-size="24px" font-style="normal" font-weight="normal" text-decoration="none" x="200" y="390"></text><text fill="#eeeeee" stroke="none" font-family="Arial" font-size="24px" font-style="normal" font-weight="normal" text-decoration="none" x="200" y="420"></text><text fill="#eeeeee" stroke="none" font-family="Arial" font-size="24px" font-style="normal" font-weight="normal" text-decoration="none" x="200" y="450"></text><text fill="#eeeeee" stroke="none" font-family="Arial" font-size="24px" font-style="normal" font-weight="normal" text-decoration="none" x="200" y="480"></text><text fill="#eeeeee" stroke="none" font-family="Arial" font-size="24px" font-style="normal" font-weight="normal" text-decoration="none" x="200" y="510"></text><text fill="#eeeeee" stroke="none" font-family="Arial" font-size="24px" font-style="normal" font-weight="normal" text-decoration="none" x="200" y="540"></text><text fill="#eeeeee" stroke="none" font-family="Arial" font-size="24px" font-style="normal" font-weight="normal" text-decoration="none" x="200" y="570"></text><text fill="#eeeeee" stroke="none" font-family="Arial" font-size="24px" font-style="normal" font-weight="normal" text-decoration="none" x="200" y="600"></text><text fill="#eeeeee" stroke="none" font-family="Arial" font-size="24px" font-style="normal" font-weight="normal" text-decoration="none" x="200" y="630"></text><text fill="#eeeeee" stroke="none" font-family="Arial" font-size="24px" font-style="normal" font-weight="normal" text-decoration="none" x="200" y="660"></text><text fill="#eeeeee" stroke="none" font-family="Arial" font-size="24px" font-style="normal" font-weight="normal" text-decoration="none" x="200" y="690"></text><text fill="#eeeeee" stroke="none" font-family="Arial" font-size="24px" font-style="normal" font-weight="normal" text-decoration="none" x="200" y="720"></text><text fill="#eeeeee" stroke="none" font-family="Arial" font-size="24px" font-style="normal" font-weight="normal" text-decoration="none" x="200" y="750"></text><text fill="#eeeeee" stroke="none" font-family="Arial" font-size="24px" font-style="normal" font-weight="normal" text-decoration="none" x="200" y="780"></text><text fill="#eeeeee" stroke="none" font-family="Arial" font-size="24px" font-style="normal" font-weight="normal" text-decoration="none" x="200" y="810"></text><text fill="#eeeeee" stroke="none" font-family="Arial" font-size="24px" font-style="normal" font-weight="normal" text-decoration="none" x="200" y="840"></text><text fill="#eeeeee" stroke="none" font-family="Arial" font-size="24px" font-style="normal" font-weight="normal" text-decoration="none" x="200" y="870"></text><text fill="#eeeeee" stroke="none" font-family="Arial" font-size="24px" font-style="normal" font-weight="normal" text-decoration="none" x="200" y="900"></text><text fill="#eeeeee" stroke="none" font-family="Arial" font-size="24px" font-style="normal" font-weight="normal" text-decoration="none" x="200" y="930"></text><text fill="#eeeeee" stroke="none" font-family="Arial" font-size="24px" font-style="normal" font-weight="normal" text-decoration="none" x="400" y="0"></text><text fill="#eeeeee" stroke="none" font-family="Arial" font-size="24px" font-style="normal" font-weight="normal" text-decoration="none" x="400" y="30"></text><text fill="#eeeeee" stroke="none" font-family="Arial" font-size="24px" font-style="normal" font-weight="normal" text-decoration="none" x="400" y="60"></text><text fill="#eeeeee" stroke="none" font-family="Arial" font-size="24px" font-style="normal" font-weight="normal" text-decoration="none" x="400" y="90"></text><text fill="#eeeeee" stroke="none" font-family="Arial" font-size="24px" font-style="normal" font-weight="normal" text-decoration="none" x="400" y="120"></text><text fill="#eeeeee" stroke="none" font-family="Arial" font-size="24px" font-style="normal" font-weight="normal" text-decoration="none" x="400" y="150"></text><text fill="#eeeeee" stroke="none" font-family="Arial" font-size="24px" font-style="normal" font-weight="normal" text-decoration="none" x="400" y="180"></text><text fill="#eeeeee" stroke="none" font-family="Arial" font-size="24px" font-style="normal" font-weight="normal" text-decoration="none" x="400" y="210"></text><text fill="#eeeeee" stroke="none" font-family="Arial" font-size="24px" font-style="normal" font-weight="normal" text-decoration="none" x="400" y="240"></text><text fill="#eeeeee" stroke="none" font-family="Arial" font-size="24px" font-style="normal" font-weight="normal" text-decoration="none" x="400" y="270"></text><text fill="#eeeeee" stroke="none" font-family="Arial" font-size="24px" font-style="normal" font-weight="normal" text-decoration="none" x="400" y="300"></text><text fill="#eeeeee" stroke="none" font-family="Arial" font-size="24px" font-style="normal" font-weight="normal" text-decoration="none" x="400" y="330"></text><text fill="#eeeeee" stroke="none" font-family="Arial" font-size="24px" font-style="normal" font-weight="normal" text-decoration="none" x="400" y="360"></text><text fill="#eeeeee" stroke="none" font-family="Arial" font-size="24px" font-style="normal" font-weight="normal" text-decoration="none" x="400" y="390"></text><text fill="#eeeeee" stroke="none" font-family="Arial" font-size="24px" font-style="normal" font-weight="normal" text-decoration="none" x="400" y="420"></text><text fill="#eeeeee" stroke="none" font-family="Arial" font-size="24px" font-style="normal" font-weight="normal" text-decoration="none" x="400" y="450"></text><text fill="#eeeeee" stroke="none" font-family="Arial" font-size="24px" font-style="normal" font-weight="normal" text-decoration="none" x="400" y="480"></text><text fill="#eeeeee" stroke="none" font-family="Arial" font-size="24px" font-style="normal" font-weight="normal" text-decoration="none" x="400" y="510"></text><text fill="#eeeeee" stroke="none" font-family="Arial" font-size="24px" font-style="normal" font-weight="normal" text-decoration="none" x="400" y="540"></text><text fill="#eeeeee" stroke="none" font-family="Arial" font-size="24px" font-style="normal" font-weight="normal" text-decoration="none" x="400" y="570"></text><text fill="#eeeeee" stroke="none" font-family="Arial" font-size="24px" font-style="normal" font-weight="normal" text-decoration="none" x="400" y="600"></text><text fill="#eeeeee" stroke="none" font-family="Arial" font-size="24px" font-style="normal" font-weight="normal" text-decoration="none" x="400" y="630"></text><text fill="#eeeeee" stroke="none" font-family="Arial" font-size="24px" font-style="normal" font-weight="normal" text-decoration="none" x="400" y="660"></text><text fill="#eeeeee" stroke="none" font-family="Arial" font-size="24px" font-style="normal" font-weight="normal" text-decoration="none" x="400" y="690"></text><text fill="#eeeeee" stroke="none" font-family="Arial" font-size="24px" font-style="normal" font-weight="normal" text-decoration="none" x="400" y="720"></text><text fill="#eeeeee" stroke="none" font-family="Arial" font-size="24px" font-style="normal" font-weight="normal" text-decoration="none" x="400" y="750"></text><text fill="#eeeeee" stroke="none" font-family="Arial" font-size="24px" font-style="normal" font-weight="normal" text-decoration="none" x="400" y="780"></text><text fill="#eeeeee" stroke="none" font-family="Arial" font-size="24px" font-style="normal" font-weight="normal" text-decoration="none" x="400" y="810"></text><text fill="#eeeeee" stroke="none" font-family="Arial" font-size="24px" font-style="normal" font-weight="normal" text-decoration="none" x="400" y="840"></text><text fill="#eeeeee" stroke="none" font-family="Arial" font-size="24px" font-style="normal" font-weight="normal" text-decoration="none" x="400" y="870"></text><text fill="#eeeeee" stroke="none" font-family="Arial" font-size="24px" font-style="normal" font-weight="normal" text-decoration="none" x="400" y="900"></text><text fill="#eeeeee" stroke="none" font-family="Arial" font-size="24px" font-style="normal" font-weight="normal" text-decoration="none" x="400" y="930"></text><text fill="#eeeeee" stroke="none" font-family="Arial" font-size="24px" font-style="normal" font-weight="normal" text-decoration="none" x="600" y="0"></text><text fill="#eeeeee" stroke="none" font-family="Arial" font-size="24px" font-style="normal" font-weight="normal" text-decoration="none" x="600" y="30"></text><text fill="#eeeeee" stroke="none" font-family="Arial" font-size="24px" font-style="normal" font-weight="normal" text-decoration="none" x="600" y="60"></text><text fill="#eeeeee" stroke="none" font-family="Arial" font-size="24px" font-style="normal" font-weight="normal" text-decoration="none" x="600" y="90"></text><text fill="#eeeeee" stroke="none" font-family="Arial" font-size="24px" font-style="normal" font-weight="normal" text-decoration="none" x="600" y="120"></text><text fill="#eeeeee" stroke="none" font-family="Arial" font-size="24px" font-style="normal" font-weight="normal" text-decoration="none" x="600" y="150"></text><text fill="#eeeeee" stroke="none" font-family="Arial" font-size="24px" font-style="normal" font-weight="normal" text-decoration="none" x="600" y="180"></text><text fill="#eeeeee" stroke="none" font-family="Arial" font-size="24px" font-style="normal" font-weight="normal" text-decoration="none" x="600" y="210"></text><text fill="#eeeeee" stroke="none" font-family="Arial" font-size="24px" font-style="normal" font-weight="normal" text-decoration="none" x="600" y="240"></text><text fill="#eeeeee" stroke="none" font-family="Arial" font-size="24px" font-style="normal" font-weight="normal" text-decoration="none" x="600" y="270"></text><text fill="#eeeeee" stroke="none" font-family="Arial" font-size="24px" font-style="normal" font-weight="normal" text-decoration="none" x="600" y="300"></text><text fill="#eeeeee" stroke="none" font-family="Arial" font-size="24px" font-style="normal" font-weight="normal" text-decoration="none" x="600" y="330"></text><text fill="#eeeeee" stroke="none" font-family="Arial" font-size="24px" font-style="normal" font-weight="normal" text-decoration="none" x="600" y="360"></text><text fill="#eeeeee" stroke="none" font-family="Arial" font-size="24px" font-style="normal" font-weight="normal" text-decoration="none" x="600" y="390"></text><text fill="#eeeeee" stroke="none" font-family="Arial" font-size="24px" font-style="normal" font-weight="normal" text-decoration="none" x="600" y="420"></text><text fill="#eeeeee" stroke="none" font-family="Arial" font-size="24px" font-style="normal" font-weight="normal" text-decoration="none" x="600" y="450"></text><text fill="#eeeeee" stroke="none" font-family="Arial" font-size="24px" font-style="normal" font-weight="normal" text-decoration="none" x="600" y="480"></text><text fill="#eeeeee" stroke="none" font-family="Arial" font-size="24px" font-style="normal" font-weight="normal" text-decoration="none" x="600" y="510"></text><text fill="#eeeeee" stroke="none" font-family="Arial" font-size="24px" font-style="normal" font-weight="normal" text-decoration="none" x="600" y="540"></text><text fill="#eeeeee" stroke="none" font-family="Arial" font-size="24px" font-style="normal" font-weight="normal" text-decoration="none" x="600" y="570"></text><text fill="#eeeeee" stroke="none" font-family="Arial" font-size="24px" font-style="normal" font-weight="normal" text-decoration="none" x="600" y="600"></text><text fill="#eeeeee" stroke="none" font-family="Arial" font-size="24px" font-style="normal" font-weight="normal" text-decoration="none" x="600" y="630"></text><text fill="#eeeeee" stroke="none" font-family="Arial" font-size="24px" font-style="normal" font-weight="normal" text-decoration="none" x="600" y="660"></text><text fill="#eeeeee" stroke="none" font-family="Arial" font-size="24px" font-style="normal" font-weight="normal" text-decoration="none" x="600" y="690"></text><text fill="#eeeeee" stroke="none" font-family="Arial" font-size="24px" font-style="normal" font-weight="normal" text-decoration="none" x="600" y="720"></text><text fill="#eeeeee" stroke="none" font-family="Arial" font-size="24px" font-style="normal" font-weight="normal" text-decoration="none" x="600" y="750"></text><text fill="#eeeeee" stroke="none" font-family="Arial" font-size="24px" font-style="normal" font-weight="normal" text-decoration="none" x="600" y="780"></text><text fill="#eeeeee" stroke="none" font-family="Arial" font-size="24px" font-style="normal" font-weight="normal" text-decoration="none" x="600" y="810"></text><text fill="#eeeeee" stroke="none" font-family="Arial" font-size="24px" font-style="normal" font-weight="normal" text-decoration="none" x="600" y="840"></text><text fill="#eeeeee" stroke="none" font-family="Arial" font-size="24px" font-style="normal" font-weight="normal" text-decoration="none" x="600" y="870"></text><text fill="#eeeeee" stroke="none" font-family="Arial" font-size="24px" font-style="normal" font-weight="normal" text-decoration="none" x="600" y="900"></text><text fill="#eeeeee" stroke="none" font-family="Arial" font-size="24px" font-style="normal" font-weight="normal" text-decoration="none" x="600" y="930"></text><g transform="translate(-182,-62) scale(1,1)"><rect fill="#C0C0C0" stroke="none" x="369" y="175" width="493" height="527" opacity="0.2"/></g><g transform="translate(-182,-62) scale(1,1)"><rect fill="#ffffff" stroke="none" x="362" y="168" width="493" height="527"/></g><g transform="translate(-182,-62) scale(1,1)"><path fill="none" stroke="#000000" d="M 362 168 L 855 168 L 855 695 L 362 695 L 362 168 Z Z" stroke-miterlimit="10"/></g><g transform="translate(-182,-62) scale(1,1)"><rect fill="#ffffff" stroke="none" x="352" y="175" width="20" height="10"/></g><g transform="translate(-182,-62) scale(1,1)"><path fill="none" stroke="#000000" d="M 352 175 L 372 175 L 372 185 L 352 185 L 352 175 Z Z" stroke-miterlimit="10"/></g><g transform="translate(-182,-62) scale(1,1)"><rect fill="#ffffff" stroke="none" x="352" y="195" width="20" height="10"/></g><g transform="translate(-182,-62) scale(1,1)"><path fill="none" stroke="#000000" d="M 352 195 L 372 195 L 372 205 L 352 205 L 352 195 Z Z" stroke-miterlimit="10"/></g><g transform="translate(-182,-62) scale(1,1)"><g><path fill="none" stroke="none"/><text fill="#000000" stroke="none" font-family="Arial" font-size="13px" font-style="normal" font-weight="bold" text-decoration="none" x="596.167724609375" y="186">Logic</text></g></g><g transform="translate(-182,-62) scale(1,1)"><rect fill="#C0C0C0" stroke="none" x="441" y="223" width="342" height="112" opacity="0.2"/></g><g transform="translate(-182,-62) scale(1,1)"><rect fill="#ffffff" stroke="none" x="434" y="216" width="342" height="112"/></g><g transform="translate(-182,-62) scale(1,1)"><path fill="none" stroke="#000000" d="M 434 216 L 776 216 L 776 328 L 434 328 L 434 216 Z Z" stroke-miterlimit="10"/></g><g transform="translate(-182,-62) scale(1,1)"><rect fill="#ffffff" stroke="none" x="424" y="223" width="20" height="10"/></g><g transform="translate(-182,-62) scale(1,1)"><path fill="none" stroke="#000000" d="M 424 223 L 444 223 L 444 233 L 424 233 L 424 223 Z Z" stroke-miterlimit="10"/></g><g transform="translate(-182,-62) scale(1,1)"><rect fill="#ffffff" stroke="none" x="424" y="243" width="20" height="10"/></g><g transform="translate(-182,-62) scale(1,1)"><path fill="none" stroke="#000000" d="M 424 243 L 444 243 L 444 253 L 424 253 L 424 243 Z Z" stroke-miterlimit="10"/></g><g transform="translate(-182,-62) scale(1,1)"><g><path fill="none" stroke="none"/><text fill="#000000" stroke="none" font-family="Arial" font-size="13px" font-style="normal" font-weight="bold" text-decoration="none" x="570.266845703125" y="234">SpeedQueue</text></g></g><g transform="translate(-182,-62) scale(1,1)"><path fill="none" stroke="#000000" d="M 590.7688383542069 91.74730880654184 A 23 23 0 0 1 545.2311616457931 98.25269119345816" stroke-miterlimit="10"/></g><g transform="translate(-182,-62) scale(1,1)"><g><path fill="none" stroke="none"/><text fill="#000000" stroke="none" font-family="Arial" font-size="13px" font-style="normal" font-weight="bold" text-decoration="none" x="532.5" y="136">SensorData</text></g></g><g transform="translate(-182,-62) scale(1,1)"><path fill="#C0C0C0" stroke="none" d="M 595.5 406.5 C 595.5 397.9395856 602.4395856 391 611 391 C 619.5604144 391 626.5 397.9395856 626.5 406.5 C 626.5 415.0604144 619.5604144 422 611 422 C 602.4395856 422 595.5 415.0604144 595.5 406.5 Z" opacity="0.2"/></g><g transform="translate(-182,-62) scale(1,1)"><path fill="none" stroke="#000000" d="M 619.5 399 A 15.5 15.5 0 0 1 588.5 399" stroke-miterlimit="10"/></g><g transform="translate(-182,-62) scale(1,1)"><path fill="#ffffff" stroke="none" d="M 591.5 399.5 C 591.5 392.59644 597.09644 387 604 387 C 610.90356 387 616.5 392.59644 616.5 399.5 C 616.5 406.40356 610.90356 412 604 412 C 597.09644 412 591.5 406.40356 591.5 399.5 Z"/></g><g transform="translate(-182,-62) scale(1,1)"><path fill="none" stroke="#000000" d="M 591.5 399.5 C 591.5 392.59644 597.09644 387 604 387 C 610.90356 387 616.5 392.59644 616.5 399.5 C 616.5 406.40356 610.90356 412 604 412 C 597.09644 412 591.5 406.40356 591.5 399.5 Z" stroke-miterlimit="10"/></g><g transform="translate(-182,-62) scale(1,1)"><g><path fill="none" stroke="none"/><text fill="#000000" stroke="none" font-family="Arial" font-size="13px" font-style="normal" font-weight="bold" text-decoration="none" x="525.984130859375" y="433">CurrentNormalizedSpeed</text></g></g><g transform="translate(-182,-62) scale(1,1)"><path fill="none" stroke="#000000" d="M 602 329 L 603.0625 384" stroke-miterlimit="10"/></g><g transform="translate(-182,-62) scale(1,1)"><rect fill="#C0C0C0" stroke="none" x="449" y="519" width="333" height="103" opacity="0.2"/></g><g transform="translate(-182,-62) scale(1,1)"><rect fill="#ffffff" stroke="none" x="442" y="512" width="333" height="103"/></g><g transform="translate(-182,-62) scale(1,1)"><path fill="none" stroke="#000000" d="M 442 512 L 775 512 L 775 615 L 442 615 L 442 512 Z Z" stroke-miterlimit="10"/></g><g transform="translate(-182,-62) scale(1,1)"><rect fill="#ffffff" stroke="none" x="432" y="519" width="20" height="10"/></g><g transform="translate(-182,-62) scale(1,1)"><path fill="none" stroke="#000000" d="M 432 519 L 452 519 L 452 529 L 432 529 L 432 519 Z Z" stroke-miterlimit="10"/></g><g transform="translate(-182,-62) scale(1,1)"><rect fill="#ffffff" stroke="none" x="432" y="539" width="20" height="10"/></g><g transform="translate(-182,-62) scale(1,1)"><path fill="none" stroke="#000000" d="M 432 539 L 452 539 L 452 549 L 432 549 L 432 539 Z Z" stroke-miterlimit="10"/></g><g transform="translate(-182,-62) scale(1,1)"><g><path fill="none" stroke="none"/><text fill="#000000" stroke="none" font-family="Arial" font-size="13px" font-style="normal" font-weight="bold" text-decoration="none" x="545.589599609375" y="530">MusicPlayspeedLogic</text></g></g><g transform="translate(-182,-62) scale(1,1)"><path fill="none" stroke="#000000" d="M 603 511 L 604 415" stroke-miterlimit="10"/></g><g transform="translate(-182,-62) scale(1,1)"><path fill="none" stroke="#000000" d="M 260.31900858771064 535.7362440025485 A 11.5 11.5 0 0 1 255.68099141228936 558.2637559974515" stroke-miterlimit="10"/></g><g transform="translate(-182,-62) scale(1,1)"><g><path fill="none" stroke="none"/><text fill="#000000" stroke="none" font-family="Arial" font-size="13px" font-style="normal" font-weight="bold" text-decoration="none" x="196.5" y="577">ChangeMusicSpeed</text></g></g><g transform="translate(-182,-62) scale(1,1)"><path fill="none" stroke="#000000" d="M 910.6366193091936 277.9098579275809 A 11.5 11.5 0 0 1 903.3633806908064 256.0901420724191" stroke-miterlimit="10"/></g><g transform="translate(-182,-62) scale(1,1)"><g><path fill="none" stroke="none"/><text fill="#000000" stroke="none" font-family="Arial" font-size="13px" font-style="normal" font-weight="bold" text-decoration="none" x="877.94091796875" y="297">SaveData</text></g></g><g transform="translate(-182,-62) scale(1,1)"><path fill="#C0C0C0" stroke="none" d="M 267.83544921875 266.5 C 267.83544921875 260.1487248 272.98417401875 255 279.33544921875 255 C 285.68672441875 255 290.83544921875 260.1487248 290.83544921875 266.5 C 290.83544921875 272.8512752 285.68672441875 278 279.33544921875 278 C 272.98417401875 278 267.83544921875 272.8512752 267.83544921875 266.5 Z" opacity="0.2"/></g><g transform="translate(-182,-62) scale(1,1)"><path fill="#ffffff" stroke="none" d="M 260.83544921875 259.5 C 260.83544921875 253.1487248 265.98417401875 248 272.33544921875 248 C 278.68672441875 248 283.83544921875 253.1487248 283.83544921875 259.5 C 283.83544921875 265.8512752 278.68672441875 271 272.33544921875 271 C 265.98417401875 271 260.83544921875 265.8512752 260.83544921875 259.5 Z"/></g><g transform="translate(-182,-62) scale(1,1)"><path fill="none" stroke="#000000" d="M 260.83544921875 259.5 C 260.83544921875 253.1487248 265.98417401875 248 272.33544921875 248 C 278.68672441875 248 283.83544921875 253.1487248 283.83544921875 259.5 C 283.83544921875 265.8512752 278.68672441875 271 272.33544921875 271 C 265.98417401875 271 260.83544921875 265.8512752 260.83544921875 259.5 Z" stroke-miterlimit="10"/></g><g transform="translate(-182,-62) scale(1,1)"><g><path fill="none" stroke="none"/><text fill="#000000" stroke="none" font-family="Arial" font-size="13px" font-style="normal" font-weight="bold" text-decoration="none" x="196.5" y="289">Provide Run Information</text></g></g><g transform="translate(-182,-62) scale(1,1)"><path fill="none" stroke="#000000" d="M 423 272 L 283.83544921875 260.8763517054116" stroke-miterlimit="10"/></g><g transform="translate(-182,-62) scale(1,1)"><path fill="none" stroke="#000000" d="M 431 562 L 269.7626953125 549.4217313878677" stroke-miterlimit="10"/></g><g transform="translate(-182,-62) scale(1,1)"><path fill="none" stroke="#000000" d="M 589 215 L 571.2857142857143 118" stroke-miterlimit="10"/></g><g transform="translate(-182,-62) scale(1,1)"><path fill="none" stroke="#000000" d="M 777 277 L 895.7099609375 270.7633463541667" stroke-miterlimit="10"/></g><g transform="translate(-182,-62) scale(1,1)"><rect fill="#C0C0C0" stroke="none" x="425" y="823" width="397" height="167" opacity="0.2"/></g><g transform="translate(-182,-62) scale(1,1)"><rect fill="#ffffff" stroke="none" x="418" y="816" width="397" height="167"/></g><g transform="translate(-182,-62) scale(1,1)"><path fill="none" stroke="#000000" d="M 418 816 L 815 816 L 815 983 L 418 983 L 418 816 Z Z" stroke-miterlimit="10"/></g><g transform="translate(-182,-62) scale(1,1)"><rect fill="#ffffff" stroke="none" x="408" y="823" width="20" height="10"/></g><g transform="translate(-182,-62) scale(1,1)"><path fill="none" stroke="#000000" d="M 408 823 L 428 823 L 428 833 L 408 833 L 408 823 Z Z" stroke-miterlimit="10"/></g><g transform="translate(-182,-62) scale(1,1)"><rect fill="#ffffff" stroke="none" x="408" y="843" width="20" height="10"/></g><g transform="translate(-182,-62) scale(1,1)"><path fill="none" stroke="#000000" d="M 408 843 L 428 843 L 428 853 L 408 853 L 408 843 Z Z" stroke-miterlimit="10"/></g><g transform="translate(-182,-62) scale(1,1)"><g><path fill="none" stroke="none"/><text fill="#000000" stroke="none" font-family="Arial" font-size="13px" font-style="normal" font-weight="normal" text-decoration="none" x="591.1455078125" y="832">«external»</text></g></g><g transform="translate(-182,-62) scale(1,1)"><g><path fill="none" stroke="none"/><text fill="#000000" stroke="none" font-family="Arial" font-size="13px" font-style="normal" font-weight="bold" text-decoration="none" x="591.504150390625" y="847">Packages</text></g></g><g transform="translate(-182,-62) scale(1,1)"><path fill="none" stroke="#000000" d="M 608 696 L 610 815" stroke-miterlimit="10" stroke-dasharray="3"/></g><g transform="translate(-182,-62) scale(1,1)"><path fill="none" stroke="#000000" d="M 605.6202995002805 804.9094983507877 L 610 815 L 614.0381462188143 804.7680219353501" stroke-miterlimit="10"/></g><g transform="translate(-182,-62) scale(1,1)"><rect fill="#ffffff" stroke="none" x="456" y="888" width="287" height="31"/></g><g transform="translate(-182,-62) scale(1,1)"><path fill="none" stroke="#000000" d="M 456 888 L 743 888 L 743 919 L 456 919 L 456 888 Z Z" stroke-miterlimit="10"/></g><g transform="translate(-182,-62) scale(1,1)"><path fill="none" stroke="#000000" d="M 488.39453125 888 L 488.39453125 919" stroke-miterlimit="10"/></g><g transform="translate(-182,-62) scale(1,1)"><g><path fill="none" stroke="none"/><text fill="#000000" stroke="none" font-family="Arial" font-size="13px" font-style="normal" font-weight="normal" text-decoration="none" x="492.89453125" y="904">https://pub.dev/packages/geolocator</text></g></g><g transform="translate(-182,-62) scale(1,1)"><g><path fill="none" stroke="none"/><text fill="#000000" stroke="none" font-family="Arial" font-size="13px" font-style="normal" font-weight="bold" text-decoration="none" x="461" y="904">link</text></g></g></g></svg>